<svg width="191" height="48" viewBox="0 0 191 48" fill="none" xmlns="http://www.w3.org/2000/svg">
<g clip-path="url(#clip0_3_2)">
<path d="M4.8877 36.373L1.91406 45H0.116211L3.8623 35.0469H5.01074L4.8877 36.373ZM7.37598 45L4.39551 36.373L4.26562 35.0469H5.4209L9.18066 45H7.37598ZM7.23242 41.3086V42.6689H1.81836V41.3086H7.23242ZM15.0626 43.4688V34.5H16.7169V45H15.2198L15.0626 43.4688ZM10.2501 41.3838V41.2402C10.2501 40.6797 10.3162 40.1693 10.4483 39.709C10.5805 39.2441 10.7719 38.8454 11.0225 38.5127C11.2732 38.1755 11.5785 37.918 11.9386 37.7402C12.2986 37.5579 12.7042 37.4668 13.1554 37.4668C13.602 37.4668 13.9939 37.5534 14.3311 37.7266C14.6684 37.8997 14.9555 38.1481 15.1925 38.4717C15.4294 38.7907 15.6186 39.1735 15.7598 39.6201C15.9011 40.0622 16.0014 40.5544 16.0606 41.0967V41.5547C16.0014 42.0833 15.9011 42.5664 15.7598 43.0039C15.6186 43.4414 15.4294 43.8197 15.1925 44.1387C14.9555 44.4577 14.6661 44.7038 14.3243 44.877C13.9871 45.0501 13.5929 45.1367 13.1417 45.1367C12.6951 45.1367 12.2917 45.0433 11.9317 44.8564C11.5763 44.6696 11.2732 44.4076 11.0225 44.0703C10.7719 43.7331 10.5805 43.3366 10.4483 42.8809C10.3162 42.4206 10.2501 41.9215 10.2501 41.3838ZM11.8975 41.2402V41.3838C11.8975 41.721 11.9272 42.0355 11.9864 42.3271C12.0502 42.6188 12.1482 42.8763 12.2804 43.0996C12.4125 43.3184 12.5834 43.4915 12.793 43.6191C13.0072 43.7422 13.2624 43.8037 13.5587 43.8037C13.9324 43.8037 14.24 43.7217 14.4815 43.5576C14.7231 43.3936 14.9122 43.1725 15.0489 42.8945C15.1902 42.612 15.2859 42.2975 15.336 41.9512V40.7139C15.3087 40.445 15.2517 40.1943 15.1651 39.9619C15.0831 39.7295 14.9714 39.5267 14.8302 39.3535C14.6889 39.1758 14.5134 39.0391 14.3038 38.9434C14.0987 38.8431 13.8549 38.793 13.5723 38.793C13.2716 38.793 13.0164 38.8568 12.8067 38.9844C12.5971 39.112 12.4239 39.2874 12.2872 39.5107C12.155 39.734 12.057 39.9938 11.9932 40.29C11.9294 40.5863 11.8975 40.903 11.8975 41.2402ZM21.2658 43.6943L23.0773 37.6035H24.7863L22.216 45H21.1496L21.2658 43.6943ZM19.8781 37.6035L21.7238 43.7217L21.8127 45H20.7463L18.1623 37.6035H19.8781ZM30.2854 43.5166V39.9893C30.2854 39.7249 30.2375 39.4971 30.1418 39.3057C30.0461 39.1143 29.9003 38.9661 29.7043 38.8613C29.5129 38.7565 29.2714 38.7041 28.9797 38.7041C28.7108 38.7041 28.4784 38.7497 28.2825 38.8408C28.0865 38.932 27.9338 39.055 27.8245 39.21C27.7151 39.3649 27.6604 39.5404 27.6604 39.7363H26.0198C26.0198 39.4447 26.0904 39.1621 26.2317 38.8887C26.373 38.6152 26.578 38.3714 26.8469 38.1572C27.1158 37.943 27.4371 37.7744 27.8108 37.6514C28.1845 37.5283 28.6038 37.4668 29.0686 37.4668C29.6246 37.4668 30.1168 37.5602 30.5452 37.7471C30.9781 37.9339 31.3176 38.2165 31.5637 38.5947C31.8144 38.9684 31.9397 39.4378 31.9397 40.0029V43.291C31.9397 43.6283 31.9625 43.9313 32.008 44.2002C32.0582 44.4645 32.1288 44.6947 32.22 44.8906V45H30.5315C30.454 44.8223 30.3925 44.5967 30.3469 44.3232C30.3059 44.0452 30.2854 43.7764 30.2854 43.5166ZM30.5246 40.502L30.5383 41.5205H29.3557C29.0504 41.5205 28.7815 41.5501 28.5491 41.6094C28.3166 41.6641 28.123 41.7461 27.968 41.8555C27.8131 41.9648 27.6968 42.097 27.6194 42.252C27.5419 42.4069 27.5032 42.5824 27.5032 42.7783C27.5032 42.9743 27.5487 43.1543 27.6399 43.3184C27.731 43.4779 27.8632 43.6032 28.0364 43.6943C28.2141 43.7855 28.4283 43.8311 28.6789 43.8311C29.0162 43.8311 29.3101 43.7627 29.5608 43.626C29.816 43.4847 30.0165 43.3138 30.1623 43.1133C30.3082 42.9082 30.3857 42.7145 30.3948 42.5322L30.928 43.2637C30.8733 43.4505 30.7799 43.651 30.6477 43.8652C30.5155 44.0794 30.3424 44.2845 30.1282 44.4805C29.9185 44.6719 29.6656 44.8291 29.3694 44.9521C29.0777 45.0752 28.7405 45.1367 28.3577 45.1367C27.8746 45.1367 27.4439 45.041 27.0657 44.8496C26.6874 44.6536 26.3912 44.3916 26.177 44.0635C25.9628 43.7308 25.8557 43.3548 25.8557 42.9355C25.8557 42.5436 25.9286 42.1973 26.0745 41.8965C26.2248 41.5911 26.4436 41.3359 26.7307 41.1309C27.0224 40.9258 27.3778 40.7708 27.7971 40.666C28.2164 40.5566 28.6949 40.502 29.2327 40.502H30.5246ZM35.7161 39.1826V45H34.0687V37.6035H35.6204L35.7161 39.1826ZM35.4222 41.0283L34.889 41.0215C34.8935 40.4974 34.9665 40.0166 35.1077 39.5791C35.2536 39.1416 35.4541 38.7656 35.7093 38.4512C35.9691 38.1367 36.279 37.8952 36.639 37.7266C36.999 37.5534 37.4001 37.4668 37.8421 37.4668C38.1976 37.4668 38.5189 37.5169 38.806 37.6172C39.0976 37.7129 39.346 37.8701 39.5511 38.0889C39.7607 38.3076 39.9202 38.5924 40.0296 38.9434C40.139 39.2897 40.1937 39.7158 40.1937 40.2217V45H38.5394V40.2148C38.5394 39.8594 38.487 39.5791 38.3821 39.374C38.2819 39.1644 38.1338 39.0163 37.9378 38.9297C37.7464 38.8385 37.5071 38.793 37.22 38.793C36.9375 38.793 36.6846 38.8522 36.4613 38.9707C36.2379 39.0892 36.0488 39.251 35.8939 39.4561C35.7435 39.6611 35.6273 39.8981 35.5452 40.167C35.4632 40.4359 35.4222 40.723 35.4222 41.0283ZM45.3168 43.8242C45.5857 43.8242 45.8272 43.7718 46.0414 43.667C46.2602 43.5576 46.4356 43.4072 46.5678 43.2158C46.7045 43.0244 46.7797 42.8034 46.7934 42.5527H48.3451C48.336 43.0312 48.1947 43.4665 47.9213 43.8584C47.6479 44.2503 47.2855 44.5625 46.8344 44.7949C46.3832 45.0228 45.8842 45.1367 45.3373 45.1367C44.7722 45.1367 44.28 45.041 43.8607 44.8496C43.4415 44.6536 43.0928 44.3848 42.8148 44.043C42.5368 43.7012 42.3272 43.307 42.1859 42.8604C42.0492 42.4137 41.9809 41.9352 41.9809 41.4248V41.1855C41.9809 40.6751 42.0492 40.1966 42.1859 39.75C42.3272 39.2988 42.5368 38.9023 42.8148 38.5605C43.0928 38.2188 43.4415 37.9521 43.8607 37.7607C44.28 37.5648 44.7699 37.4668 45.3305 37.4668C45.9229 37.4668 46.4424 37.5853 46.8891 37.8223C47.3357 38.0547 47.6866 38.3805 47.9418 38.7998C48.2016 39.2145 48.336 39.6976 48.3451 40.249H46.7934C46.7797 39.9756 46.7113 39.7295 46.5883 39.5107C46.4698 39.2874 46.3012 39.1097 46.0824 38.9775C45.8682 38.8454 45.6107 38.7793 45.31 38.7793C44.9773 38.7793 44.7016 38.8477 44.4828 38.9844C44.2641 39.1165 44.0932 39.2988 43.9701 39.5312C43.8471 39.7591 43.7582 40.0166 43.7035 40.3037C43.6534 40.5863 43.6283 40.8802 43.6283 41.1855V41.4248C43.6283 41.7301 43.6534 42.0264 43.7035 42.3135C43.7536 42.6006 43.8402 42.8581 43.9633 43.0859C44.0909 43.3092 44.2641 43.4893 44.4828 43.626C44.7016 43.7581 44.9796 43.8242 45.3168 43.8242ZM53.2905 45.1367C52.7436 45.1367 52.2492 45.0479 51.8071 44.8701C51.3696 44.6878 50.9959 44.4349 50.686 44.1113C50.3807 43.7878 50.146 43.4072 49.9819 42.9697C49.8179 42.5322 49.7358 42.0605 49.7358 41.5547V41.2812C49.7358 40.7025 49.8201 40.1784 49.9888 39.709C50.1574 39.2396 50.3921 38.8385 50.6929 38.5059C50.9936 38.1686 51.3491 37.9111 51.7593 37.7334C52.1694 37.5557 52.6138 37.4668 53.0923 37.4668C53.6209 37.4668 54.0835 37.5557 54.48 37.7334C54.8764 37.9111 55.2046 38.1618 55.4643 38.4854C55.7287 38.8044 55.9246 39.1849 56.0522 39.627C56.1844 40.069 56.2505 40.5566 56.2505 41.0898V41.7939H50.5356V40.6113H54.6235V40.4814C54.6144 40.1852 54.5552 39.9072 54.4458 39.6475C54.341 39.3877 54.1792 39.1781 53.9604 39.0186C53.7417 38.859 53.45 38.7793 53.0854 38.7793C52.812 38.7793 52.5682 38.8385 52.354 38.957C52.1443 39.071 51.9689 39.2373 51.8276 39.4561C51.6863 39.6748 51.577 39.9391 51.4995 40.249C51.4266 40.5544 51.3901 40.8984 51.3901 41.2812V41.5547C51.3901 41.8783 51.4334 42.179 51.52 42.457C51.6111 42.7305 51.7433 42.9697 51.9165 43.1748C52.0897 43.3799 52.2993 43.5417 52.5454 43.6602C52.7915 43.7741 53.0718 43.8311 53.3862 43.8311C53.7827 43.8311 54.1359 43.7513 54.4458 43.5918C54.7557 43.4323 55.0246 43.2067 55.2524 42.915L56.1206 43.7559C55.9611 43.9883 55.7537 44.2116 55.4985 44.4258C55.2433 44.6354 54.9311 44.8063 54.562 44.9385C54.1974 45.0706 53.7736 45.1367 53.2905 45.1367ZM62.4673 43.4688V34.5H64.1216V45H62.6246L62.4673 43.4688ZM57.6548 41.3838V41.2402C57.6548 40.6797 57.7209 40.1693 57.8531 39.709C57.9852 39.2441 58.1767 38.8454 58.4273 38.5127C58.678 38.1755 58.9833 37.918 59.3433 37.7402C59.7033 37.5579 60.1089 37.4668 60.5601 37.4668C61.0067 37.4668 61.3987 37.5534 61.7359 37.7266C62.0731 37.8997 62.3602 38.1481 62.5972 38.4717C62.8342 38.7907 63.0233 39.1735 63.1646 39.6201C63.3059 40.0622 63.4061 40.5544 63.4654 41.0967V41.5547C63.4061 42.0833 63.3059 42.5664 63.1646 43.0039C63.0233 43.4414 62.8342 43.8197 62.5972 44.1387C62.3602 44.4577 62.0709 44.7038 61.7291 44.877C61.3918 45.0501 60.9976 45.1367 60.5464 45.1367C60.0998 45.1367 59.6965 45.0433 59.3365 44.8564C58.981 44.6696 58.678 44.4076 58.4273 44.0703C58.1767 43.7331 57.9852 43.3366 57.8531 42.8809C57.7209 42.4206 57.6548 41.9215 57.6548 41.3838ZM59.3023 41.2402V41.3838C59.3023 41.721 59.3319 42.0355 59.3912 42.3271C59.455 42.6188 59.553 42.8763 59.6851 43.0996C59.8173 43.3184 59.9882 43.4915 60.1978 43.6191C60.412 43.7422 60.6672 43.8037 60.9634 43.8037C61.3371 43.8037 61.6448 43.7217 61.8863 43.5576C62.1278 43.3936 62.317 43.1725 62.4537 42.8945C62.5949 42.612 62.6906 42.2975 62.7408 41.9512V40.7139C62.7134 40.445 62.6565 40.1943 62.5699 39.9619C62.4879 39.7295 62.3762 39.5267 62.2349 39.3535C62.0936 39.1758 61.9182 39.0391 61.7086 38.9434C61.5035 38.8431 61.2597 38.793 60.9771 38.793C60.6763 38.793 60.4211 38.8568 60.2115 38.9844C60.0018 39.112 59.8287 39.2874 59.692 39.5107C59.5598 39.734 59.4618 39.9938 59.398 40.29C59.3342 40.5863 59.3023 40.903 59.3023 41.2402ZM72.0505 35.0469V45H70.3347V35.0469H72.0505ZM76.1111 39.4014V40.7617H71.613V39.4014H76.1111ZM76.6784 35.0469V36.4141H71.613V35.0469H76.6784ZM82.2391 43.5166V39.9893C82.2391 39.7249 82.1912 39.4971 82.0955 39.3057C81.9998 39.1143 81.854 38.9661 81.658 38.8613C81.4666 38.7565 81.2251 38.7041 80.9334 38.7041C80.6645 38.7041 80.4321 38.7497 80.2361 38.8408C80.0402 38.932 79.8875 39.055 79.7781 39.21C79.6687 39.3649 79.6141 39.5404 79.6141 39.7363H77.9734C77.9734 39.4447 78.0441 39.1621 78.1853 38.8887C78.3266 38.6152 78.5317 38.3714 78.8006 38.1572C79.0695 37.943 79.3908 37.7744 79.7645 37.6514C80.1381 37.5283 80.5574 37.4668 81.0223 37.4668C81.5783 37.4668 82.0704 37.5602 82.4988 37.7471C82.9318 37.9339 83.2713 38.2165 83.5174 38.5947C83.768 38.9684 83.8934 39.4378 83.8934 40.0029V43.291C83.8934 43.6283 83.9161 43.9313 83.9617 44.2002C84.0118 44.4645 84.0825 44.6947 84.1736 44.8906V45H82.4852C82.4077 44.8223 82.3462 44.5967 82.3006 44.3232C82.2596 44.0452 82.2391 43.7764 82.2391 43.5166ZM82.4783 40.502L82.492 41.5205H81.3094C81.004 41.5205 80.7352 41.5501 80.5027 41.6094C80.2703 41.6641 80.0766 41.7461 79.9217 41.8555C79.7667 41.9648 79.6505 42.097 79.573 42.252C79.4956 42.4069 79.4568 42.5824 79.4568 42.7783C79.4568 42.9743 79.5024 43.1543 79.5936 43.3184C79.6847 43.4779 79.8169 43.6032 79.99 43.6943C80.1678 43.7855 80.382 43.8311 80.6326 43.8311C80.9699 43.8311 81.2638 43.7627 81.5145 43.626C81.7697 43.4847 81.9702 43.3138 82.116 43.1133C82.2618 42.9082 82.3393 42.7145 82.3484 42.5322L82.8816 43.2637C82.827 43.4505 82.7335 43.651 82.6014 43.8652C82.4692 44.0794 82.296 44.2845 82.0818 44.4805C81.8722 44.6719 81.6193 44.8291 81.323 44.9521C81.0314 45.0752 80.6941 45.1367 80.3113 45.1367C79.8283 45.1367 79.3976 45.041 79.0193 44.8496C78.6411 44.6536 78.3449 44.3916 78.1307 44.0635C77.9165 43.7308 77.8094 43.3548 77.8094 42.9355C77.8094 42.5436 77.8823 42.1973 78.0281 41.8965C78.1785 41.5911 78.3973 41.3359 78.6844 41.1309C78.976 40.9258 79.3315 40.7708 79.7508 40.666C80.17 40.5566 80.6486 40.502 81.1863 40.502H82.4783ZM89.0575 43.8242C89.3264 43.8242 89.5679 43.7718 89.7821 43.667C90.0009 43.5576 90.1763 43.4072 90.3085 43.2158C90.4452 43.0244 90.5204 42.8034 90.5341 42.5527H92.0858C92.0767 43.0312 91.9354 43.4665 91.662 43.8584C91.3886 44.2503 91.0263 44.5625 90.5751 44.7949C90.1239 45.0228 89.6249 45.1367 89.078 45.1367C88.5129 45.1367 88.0207 45.041 87.6014 44.8496C87.1822 44.6536 86.8335 44.3848 86.5555 44.043C86.2776 43.7012 86.0679 43.307 85.9266 42.8604C85.7899 42.4137 85.7216 41.9352 85.7216 41.4248V41.1855C85.7216 40.6751 85.7899 40.1966 85.9266 39.75C86.0679 39.2988 86.2776 38.9023 86.5555 38.5605C86.8335 38.2188 87.1822 37.9521 87.6014 37.7607C88.0207 37.5648 88.5106 37.4668 89.0712 37.4668C89.6636 37.4668 90.1832 37.5853 90.6298 37.8223C91.0764 38.0547 91.4273 38.3805 91.6825 38.7998C91.9423 39.2145 92.0767 39.6976 92.0858 40.249H90.5341C90.5204 39.9756 90.452 39.7295 90.329 39.5107C90.2105 39.2874 90.0419 39.1097 89.8231 38.9775C89.6089 38.8454 89.3514 38.7793 89.0507 38.7793C88.718 38.7793 88.4423 38.8477 88.2235 38.9844C88.0048 39.1165 87.8339 39.2988 87.7108 39.5312C87.5878 39.7591 87.4989 40.0166 87.4442 40.3037C87.3941 40.5863 87.369 40.8802 87.369 41.1855V41.4248C87.369 41.7301 87.3941 42.0264 87.4442 42.3135C87.4944 42.6006 87.5809 42.8581 87.704 43.0859C87.8316 43.3092 88.0048 43.4893 88.2235 43.626C88.4423 43.7581 88.7203 43.8242 89.0575 43.8242ZM95.5341 37.6035V45H93.8798V37.6035H95.5341ZM93.7705 35.6621C93.7705 35.4115 93.8525 35.2041 94.0166 35.04C94.1852 34.8714 94.4176 34.7871 94.7138 34.7871C95.0055 34.7871 95.2356 34.8714 95.4043 35.04C95.5729 35.2041 95.6572 35.4115 95.6572 35.6621C95.6572 35.9082 95.5729 36.1133 95.4043 36.2773C95.2356 36.4414 95.0055 36.5234 94.7138 36.5234C94.4176 36.5234 94.1852 36.4414 94.0166 36.2773C93.8525 36.1133 93.7705 35.9082 93.7705 35.6621ZM101.929 43.5166V39.9893C101.929 39.7249 101.881 39.4971 101.785 39.3057C101.689 39.1143 101.544 38.9661 101.348 38.8613C101.156 38.7565 100.915 38.7041 100.623 38.7041C100.354 38.7041 100.122 38.7497 99.9258 38.8408C99.7299 38.932 99.5772 39.055 99.4678 39.21C99.3584 39.3649 99.3037 39.5404 99.3037 39.7363H97.6631C97.6631 39.4447 97.7338 39.1621 97.875 38.8887C98.0163 38.6152 98.2214 38.3714 98.4903 38.1572C98.7592 37.943 99.0804 37.7744 99.4541 37.6514C99.8278 37.5283 100.247 37.4668 100.712 37.4668C101.268 37.4668 101.76 37.5602 102.189 37.7471C102.621 37.9339 102.961 38.2165 103.207 38.5947C103.458 38.9684 103.583 39.4378 103.583 40.0029V43.291C103.583 43.6283 103.606 43.9313 103.651 44.2002C103.702 44.4645 103.772 44.6947 103.863 44.8906V45H102.175C102.097 44.8223 102.036 44.5967 101.99 44.3232C101.949 44.0452 101.929 43.7764 101.929 43.5166ZM102.168 40.502L102.182 41.5205H100.999C100.694 41.5205 100.425 41.5501 100.192 41.6094C99.96 41.6641 99.7663 41.7461 99.6114 41.8555C99.4564 41.9648 99.3402 42.097 99.2627 42.252C99.1853 42.4069 99.1465 42.5824 99.1465 42.7783C99.1465 42.9743 99.1921 43.1543 99.2832 43.3184C99.3744 43.4779 99.5065 43.6032 99.6797 43.6943C99.8575 43.7855 100.072 43.8311 100.322 43.8311C100.66 43.8311 100.953 43.7627 101.204 43.626C101.459 43.4847 101.66 43.3138 101.806 43.1133C101.952 42.9082 102.029 42.7145 102.038 42.5322L102.571 43.2637C102.517 43.4505 102.423 43.651 102.291 43.8652C102.159 44.0794 101.986 44.2845 101.772 44.4805C101.562 44.6719 101.309 44.8291 101.013 44.9521C100.721 45.0752 100.384 45.1367 100.001 45.1367C99.5179 45.1367 99.0873 45.041 98.709 44.8496C98.3308 44.6536 98.0345 44.3916 97.8204 44.0635C97.6062 43.7308 97.4991 43.3548 97.4991 42.9355C97.4991 42.5436 97.572 42.1973 97.7178 41.8965C97.8682 41.5911 98.087 41.3359 98.3741 41.1309C98.6657 40.9258 99.0212 40.7708 99.4405 40.666C99.8597 40.5566 100.338 40.502 100.876 40.502H102.168ZM107.489 34.5V45H105.835V34.5H107.489ZM120.299 43.6396V45H115.015V43.6396H120.299ZM115.5 35.0469V45H113.784V35.0469H115.5ZM119.609 39.2031V40.543H115.015V39.2031H119.609ZM120.265 35.0469V36.4141H115.015V35.0469H120.265ZM123.604 39.1074V45H121.956V37.6035H123.508L123.604 39.1074ZM123.337 41.0283L122.777 41.0215C122.777 40.5111 122.841 40.0394 122.968 39.6064C123.096 39.1735 123.283 38.7975 123.529 38.4785C123.775 38.1549 124.08 37.9066 124.445 37.7334C124.814 37.5557 125.24 37.4668 125.723 37.4668C126.06 37.4668 126.368 37.5169 126.646 37.6172C126.928 37.7129 127.172 37.8656 127.377 38.0752C127.587 38.2848 127.746 38.5537 127.856 38.8818C127.97 39.21 128.027 39.6064 128.027 40.0713V45H126.379V40.2148C126.379 39.8548 126.325 39.5723 126.215 39.3672C126.11 39.1621 125.958 39.0163 125.757 38.9297C125.561 38.8385 125.327 38.793 125.053 38.793C124.743 38.793 124.479 38.8522 124.26 38.9707C124.046 39.0892 123.87 39.251 123.734 39.4561C123.597 39.6611 123.497 39.8981 123.433 40.167C123.369 40.4359 123.337 40.723 123.337 41.0283ZM127.924 40.5908L127.152 40.7617C127.152 40.3151 127.213 39.8936 127.336 39.4971C127.464 39.096 127.648 38.7451 127.89 38.4443C128.136 38.139 128.439 37.8997 128.799 37.7266C129.159 37.5534 129.572 37.4668 130.036 37.4668C130.415 37.4668 130.752 37.5192 131.048 37.624C131.349 37.7243 131.604 37.8838 131.814 38.1025C132.023 38.3213 132.183 38.6061 132.292 38.957C132.402 39.3034 132.456 39.7227 132.456 40.2148V45H130.802V40.208C130.802 39.8343 130.747 39.5449 130.638 39.3398C130.533 39.1348 130.383 38.9935 130.187 38.916C129.991 38.834 129.756 38.793 129.483 38.793C129.228 38.793 129.002 38.8408 128.806 38.9365C128.615 39.0277 128.453 39.1576 128.321 39.3262C128.189 39.4902 128.088 39.6794 128.02 39.8936C127.956 40.1077 127.924 40.3402 127.924 40.5908ZM134.257 41.3838V41.2266C134.257 40.6934 134.335 40.1989 134.49 39.7432C134.645 39.2829 134.868 38.8841 135.16 38.5469C135.456 38.2051 135.816 37.9408 136.24 37.7539C136.668 37.5625 137.151 37.4668 137.689 37.4668C138.231 37.4668 138.714 37.5625 139.138 37.7539C139.567 37.9408 139.929 38.2051 140.225 38.5469C140.521 38.8841 140.747 39.2829 140.902 39.7432C141.057 40.1989 141.134 40.6934 141.134 41.2266V41.3838C141.134 41.917 141.057 42.4115 140.902 42.8672C140.747 43.3229 140.521 43.7217 140.225 44.0635C139.929 44.4007 139.569 44.665 139.145 44.8564C138.721 45.0433 138.24 45.1367 137.703 45.1367C137.16 45.1367 136.675 45.0433 136.247 44.8564C135.823 44.665 135.463 44.4007 135.166 44.0635C134.87 43.7217 134.645 43.3229 134.49 42.8672C134.335 42.4115 134.257 41.917 134.257 41.3838ZM135.905 41.2266V41.3838C135.905 41.7165 135.939 42.0309 136.007 42.3271C136.076 42.6234 136.183 42.8831 136.329 43.1064C136.474 43.3298 136.661 43.5052 136.889 43.6328C137.117 43.7604 137.388 43.8242 137.703 43.8242C138.008 43.8242 138.272 43.7604 138.496 43.6328C138.723 43.5052 138.91 43.3298 139.056 43.1064C139.202 42.8831 139.309 42.6234 139.377 42.3271C139.45 42.0309 139.487 41.7165 139.487 41.3838V41.2266C139.487 40.8984 139.45 40.5885 139.377 40.2969C139.309 40.0007 139.2 39.7386 139.049 39.5107C138.903 39.2829 138.717 39.1051 138.489 38.9775C138.265 38.8454 137.999 38.7793 137.689 38.7793C137.379 38.7793 137.11 38.8454 136.882 38.9775C136.659 39.1051 136.474 39.2829 136.329 39.5107C136.183 39.7386 136.076 40.0007 136.007 40.2969C135.939 40.5885 135.905 40.8984 135.905 41.2266ZM146.326 37.6035V38.8066H142.156V37.6035H146.326ZM143.359 35.792H145.006V42.9561C145.006 43.1839 145.038 43.3594 145.102 43.4824C145.17 43.6009 145.264 43.6807 145.382 43.7217C145.501 43.7627 145.64 43.7832 145.799 43.7832C145.913 43.7832 146.023 43.7764 146.127 43.7627C146.232 43.749 146.317 43.7354 146.38 43.7217L146.387 44.9795C146.251 45.0205 146.091 45.057 145.909 45.0889C145.731 45.1208 145.526 45.1367 145.293 45.1367C144.915 45.1367 144.58 45.0706 144.289 44.9385C143.997 44.8018 143.769 44.5807 143.605 44.2754C143.441 43.9701 143.359 43.5645 143.359 43.0586V35.792ZM149.781 37.6035V45H148.127V37.6035H149.781ZM148.017 35.6621C148.017 35.4115 148.099 35.2041 148.263 35.04C148.432 34.8714 148.664 34.7871 148.961 34.7871C149.252 34.7871 149.482 34.8714 149.651 35.04C149.82 35.2041 149.904 35.4115 149.904 35.6621C149.904 35.9082 149.82 36.1133 149.651 36.2773C149.482 36.4414 149.252 36.5234 148.961 36.5234C148.664 36.5234 148.432 36.4414 148.263 36.2773C148.099 36.1133 148.017 35.9082 148.017 35.6621ZM151.691 41.3838V41.2266C151.691 40.6934 151.769 40.1989 151.924 39.7432C152.078 39.2829 152.302 38.8841 152.593 38.5469C152.89 38.2051 153.25 37.9408 153.674 37.7539C154.102 37.5625 154.585 37.4668 155.123 37.4668C155.665 37.4668 156.148 37.5625 156.572 37.7539C157 37.9408 157.363 38.2051 157.659 38.5469C157.955 38.8841 158.181 39.2829 158.336 39.7432C158.491 40.1989 158.568 40.6934 158.568 41.2266V41.3838C158.568 41.917 158.491 42.4115 158.336 42.8672C158.181 43.3229 157.955 43.7217 157.659 44.0635C157.363 44.4007 157.003 44.665 156.579 44.8564C156.155 45.0433 155.674 45.1367 155.136 45.1367C154.594 45.1367 154.109 45.0433 153.68 44.8564C153.257 44.665 152.897 44.4007 152.6 44.0635C152.304 43.7217 152.078 43.3229 151.924 42.8672C151.769 42.4115 151.691 41.917 151.691 41.3838ZM153.339 41.2266V41.3838C153.339 41.7165 153.373 42.0309 153.441 42.3271C153.509 42.6234 153.617 42.8831 153.762 43.1064C153.908 43.3298 154.095 43.5052 154.323 43.6328C154.551 43.7604 154.822 43.8242 155.136 43.8242C155.442 43.8242 155.706 43.7604 155.929 43.6328C156.157 43.5052 156.344 43.3298 156.49 43.1064C156.636 42.8831 156.743 42.6234 156.811 42.3271C156.884 42.0309 156.921 41.7165 156.921 41.3838V41.2266C156.921 40.8984 156.884 40.5885 156.811 40.2969C156.743 40.0007 156.633 39.7386 156.483 39.5107C156.337 39.2829 156.15 39.1051 155.923 38.9775C155.699 38.8454 155.433 38.7793 155.123 38.7793C154.813 38.7793 154.544 38.8454 154.316 38.9775C154.093 39.1051 153.908 39.2829 153.762 39.5107C153.617 39.7386 153.509 40.0007 153.441 40.2969C153.373 40.5885 153.339 40.8984 153.339 41.2266ZM162.003 39.1826V45H160.355V37.6035H161.907L162.003 39.1826ZM161.709 41.0283L161.176 41.0215C161.18 40.4974 161.253 40.0166 161.394 39.5791C161.54 39.1416 161.741 38.7656 161.996 38.4512C162.256 38.1367 162.566 37.8952 162.926 37.7266C163.286 37.5534 163.687 37.4668 164.129 37.4668C164.484 37.4668 164.805 37.5169 165.093 37.6172C165.384 37.7129 165.633 37.8701 165.838 38.0889C166.047 38.3076 166.207 38.5924 166.316 38.9434C166.426 39.2897 166.48 39.7158 166.48 40.2217V45H164.826V40.2148C164.826 39.8594 164.774 39.5791 164.669 39.374C164.568 39.1644 164.42 39.0163 164.224 38.9297C164.033 38.8385 163.794 38.793 163.507 38.793C163.224 38.793 162.971 38.8522 162.748 38.9707C162.525 39.0892 162.335 39.251 162.18 39.4561C162.03 39.6611 161.914 39.8981 161.832 40.167C161.75 40.4359 161.709 40.723 161.709 41.0283ZM176.528 36.373L173.555 45H171.757L175.503 35.0469H176.651L176.528 36.373ZM179.017 45L176.036 36.373L175.906 35.0469H177.061L180.821 45H179.017ZM178.873 41.3086V42.6689H173.459V41.3086H178.873ZM184.188 35.0469V45H182.472V35.0469H184.188Z" fill="#1D202B"/>
<path d="M0.0317383 3.69073C0.0308179 3.3391 0.0991655 2.99073 0.23291 2.66552C0.366655 2.34032 0.563485 2.04465 0.811523 1.7954C1.05956 1.54616 1.35416 1.34822 1.67871 1.2129C2.00326 1.07758 2.351 1.00753 2.70264 1.00674H3.29785C3.78965 0.999111 4.27456 1.1243 4.70117 1.3691C5.12778 1.61391 5.48013 1.96927 5.72168 2.39773L12.189 12.9397L18.7207 2.36573C18.954 1.93936 19.3014 1.58643 19.7241 1.34655C20.1468 1.10668 20.6281 0.98935 21.1138 1.00773H21.6958C22.0475 1.00681 22.3959 1.07517 22.7212 1.2089C23.0465 1.34264 23.342 1.53912 23.5913 1.78715C23.8406 2.03518 24.0389 2.32989 24.1743 2.65444C24.3097 2.979 24.3799 3.32706 24.3809 3.67874V23.0257C24.39 23.3779 24.3292 23.7283 24.2021 24.0569C24.0751 24.3854 23.8843 24.6856 23.6406 24.94C23.397 25.1944 23.1055 25.3981 22.7827 25.5392C22.46 25.6803 22.1125 25.7562 21.7603 25.7623C21.408 25.7684 21.0579 25.7048 20.7305 25.575C20.403 25.4452 20.1044 25.2518 19.8521 25.0061C19.5997 24.7603 19.3987 24.467 19.2603 24.143C19.1218 23.8191 19.0491 23.471 19.0459 23.1187C19.0459 23.0874 19.0459 23.0564 19.0459 23.0257V10.9007L14.3569 18.1437C14.1454 18.5528 13.8255 18.8959 13.4321 19.1354C13.0387 19.3748 12.587 19.5015 12.1265 19.5015C11.6659 19.5015 11.2142 19.3748 10.8208 19.1354C10.4274 18.8959 10.1075 18.5528 9.896 18.1437L5.271 11.0297V23.1227C5.2689 23.4689 5.19839 23.8112 5.06396 24.1301C4.92954 24.4491 4.73358 24.7384 4.4873 24.9817C4.24103 25.2249 3.94952 25.4172 3.62891 25.5476C3.30829 25.678 2.96477 25.744 2.61865 25.7417C2.27595 25.7431 1.93674 25.6768 1.61963 25.5469C1.30252 25.4169 1.01372 25.2258 0.770508 24.9843C0.527298 24.7429 0.334417 24.4559 0.202148 24.1397C0.0698802 23.8236 0.00117967 23.4844 0 23.1417V3.69073H0.0317383Z" fill="#1D202B"/>
<path d="M52.7397 9.28495C52.7664 8.59994 53.0572 7.95187 53.5513 7.47663C54.0453 7.0014 54.7041 6.73594 55.3896 6.73594C56.0752 6.73594 56.7345 7.0014 57.2285 7.47663C57.7226 7.95187 58.0134 8.59994 58.04 9.28495V10.126C58.816 8.31496 60.0399 6.63397 61.6279 6.63397C62.2574 6.62655 62.8676 6.85169 63.3413 7.26623C63.8151 7.68077 64.1191 8.25555 64.1953 8.88043C64.2715 9.50531 64.1142 10.1363 63.7539 10.6526C63.3936 11.1688 62.8555 11.5339 62.2427 11.678C59.5577 12.292 58.0708 14.361 58.0708 18.113V23.0599C58.0836 23.7555 57.8228 24.4283 57.3442 24.9332C56.8656 25.4381 56.2075 25.7347 55.5122 25.7591C54.8169 25.7835 54.1403 25.5338 53.6274 25.0636C53.1146 24.5935 52.807 23.9407 52.771 23.246C52.771 23.184 52.771 23.1219 52.771 23.0599V9.28495H52.7397Z" fill="#1D202B"/>
<path d="M67.2925 9.283C67.3191 8.598 67.6099 7.9499 68.104 7.47467C68.5981 6.99943 69.2573 6.73398 69.9429 6.73398C70.6284 6.73398 71.2872 6.99943 71.7812 7.47467C72.2753 7.9499 72.5662 8.598 72.5928 9.283V9.541C73.232 8.58853 74.0994 7.81134 75.1162 7.28032C76.133 6.7493 77.2666 6.48138 78.4136 6.50101C82.7466 6.50101 86.8857 9.901 86.8857 16.138V16.202C86.8857 22.442 82.8076 25.838 78.4136 25.838C77.2943 25.8573 76.186 25.6162 75.1758 25.1337C74.1656 24.6513 73.2813 23.9407 72.5928 23.058V28.62C72.6056 29.3156 72.3443 29.9883 71.8657 30.4933C71.3871 30.9982 70.7294 31.2948 70.0342 31.3192C69.3389 31.3436 68.6617 31.0938 68.1489 30.6237C67.6361 30.1536 67.3285 29.5008 67.2925 28.806C67.2925 28.744 67.2925 28.682 67.2925 28.62V9.283ZM81.5854 16.204V16.14C81.5854 13.04 79.4859 10.999 77.0269 10.999C74.5679 10.999 72.4995 13.038 72.4995 16.14V16.204C72.4995 19.304 74.5389 21.345 77.0269 21.345C79.5149 21.345 81.5854 19.34 81.5854 16.204Z" fill="#1D202B"/>
<path d="M90.7676 2.55878C90.7942 1.87377 91.085 1.22569 91.5791 0.750458C92.0732 0.275223 92.732 0.00976563 93.4175 0.00976562C94.103 0.00976563 94.7623 0.275223 95.2563 0.750458C95.7504 1.22569 96.0413 1.87377 96.0679 2.55878V9.51079C96.6641 8.60194 97.4736 7.85276 98.4258 7.32863C99.378 6.80449 100.444 6.52131 101.531 6.50378C105.541 6.50378 107.869 9.15578 107.869 13.4238V23.0598C107.881 23.7554 107.621 24.4281 107.142 24.933C106.663 25.4379 106.005 25.7346 105.31 25.759C104.615 25.7834 103.938 25.5336 103.425 25.0635C102.912 24.5933 102.605 23.9406 102.569 23.2458C102.569 23.1838 102.569 23.1218 102.569 23.0598V15.1058C102.569 12.6158 101.369 11.3218 99.3687 11.3218C97.3687 11.3218 96.0688 12.6148 96.0688 15.1058V23.0598C96.0817 23.7554 95.8204 24.4281 95.3418 24.933C94.8632 25.4379 94.2055 25.7346 93.5103 25.759C92.815 25.7834 92.1378 25.5336 91.625 25.0635C91.1122 24.5933 90.8045 23.9406 90.7686 23.2458C90.7686 23.1838 90.7686 23.1218 90.7686 23.0598L90.7676 2.55878Z" fill="#1D202B"/>
<path d="M29.8469 8.89546C28.7149 12.2265 27.1629 26.1005 31.8469 26.3255C41.5149 26.8425 49.7279 18.7255 49.4699 16.1715C49.1439 13.0995 39.187 5.17747 33.82 4.95047C30.748 4.78747 30.62 6.63146 29.843 8.89546M37.4743 22.0235C36.3168 22.0235 35.1849 21.6802 34.2224 21.0371C33.2599 20.394 32.5096 19.48 32.0666 18.4105C31.6236 17.3411 31.5078 16.1643 31.7336 15.029C31.9594 13.8936 32.5167 12.8507 33.3352 12.0321C34.1536 11.2135 35.1964 10.656 36.3317 10.4301C37.4671 10.2041 38.6436 10.3199 39.7131 10.7627C40.7826 11.2056 41.6968 11.9556 42.34 12.918C42.9833 13.8804 43.3272 15.0119 43.3274 16.1695C43.3276 17.7213 42.711 19.2098 41.614 20.3074C40.5169 21.405 39.0291 22.0219 37.4773 22.0225" fill="#EF9937"/>
<path d="M38.8682 12.874C39.1368 12.8738 39.3996 12.9533 39.623 13.1024C39.8465 13.2515 40.0206 13.4635 40.1235 13.7116C40.2265 13.9598 40.2535 14.2328 40.2012 14.4963C40.1489 14.7598 40.0195 15.0019 39.8296 15.1919C39.6397 15.3819 39.3977 15.5114 39.1343 15.5639C38.8708 15.6164 38.5978 15.5895 38.3496 15.4868C38.1014 15.384 37.8895 15.2099 37.7402 14.9866C37.591 14.7633 37.5112 14.5007 37.5112 14.232C37.5112 13.872 37.6542 13.5268 37.9087 13.2721C38.1631 13.0175 38.5082 12.8743 38.8682 12.874Z" fill="#1D202B"/>
<path d="M112.594 13.6486V13.5846C112.561 6.69664 117.638 0.973648 124.655 0.908648C127.958 0.822584 131.167 2.01597 133.612 4.23964C133.824 4.43128 133.951 4.6986 133.967 4.98365C133.955 5.22516 133.851 5.45297 133.677 5.62097C133.503 5.78898 133.272 5.88465 133.03 5.88864C132.915 5.89407 132.8 5.87373 132.693 5.8291C132.586 5.78448 132.491 5.71669 132.414 5.63065C131.389 4.61732 130.172 3.82062 128.833 3.28803C127.494 2.75544 126.061 2.49785 124.621 2.53064C118.801 2.56364 114.435 7.34865 114.468 13.4926V13.5577C114.5 19.7007 119.028 24.4846 124.816 24.4576C126.296 24.4618 127.762 24.1597 129.12 23.5703C130.478 22.9808 131.699 22.1169 132.707 21.0326C132.822 20.9008 132.974 20.8078 133.144 20.7661C133.314 20.7245 133.493 20.7363 133.655 20.8C133.818 20.8637 133.957 20.9762 134.054 21.122C134.15 21.2678 134.199 21.4399 134.194 21.6146C134.198 21.7327 134.173 21.85 134.123 21.9569C134.072 22.0638 133.997 22.1572 133.904 22.2296C132.717 23.4639 131.29 24.442 129.711 25.1038C128.131 25.7655 126.433 26.097 124.721 26.0776C117.864 26.1776 112.659 20.6456 112.595 13.6606" fill="#1D202B"/>
<path d="M137.524 20.4067V20.3427C137.491 16.6567 140.659 14.5227 145.251 14.4907C147.239 14.4503 149.222 14.7009 151.137 15.2347V14.4597C151.105 10.8717 148.907 9.02774 145.251 9.05974C143.497 9.07153 141.77 9.49198 140.207 10.2877C140.086 10.3475 139.954 10.3815 139.82 10.3877C139.608 10.3791 139.407 10.2913 139.258 10.1416C139.108 9.9919 139.019 9.79135 139.011 9.57973C139.014 9.41893 139.062 9.26213 139.147 9.12565C139.232 8.98918 139.352 8.87802 139.495 8.80372C141.321 7.9229 143.32 7.45905 145.348 7.44572C146.361 7.36813 147.379 7.49725 148.341 7.82524C149.303 8.15323 150.188 8.67323 150.943 9.35371C151.577 10.0185 152.067 10.8064 152.385 11.6685C152.702 12.5306 152.839 13.4486 152.787 14.3657L152.851 24.6807C152.856 24.7911 152.839 24.9014 152.801 25.0052C152.763 25.109 152.705 25.2044 152.631 25.2859C152.556 25.3674 152.466 25.4334 152.366 25.4801C152.266 25.5268 152.158 25.5534 152.047 25.5582C151.937 25.5631 151.827 25.5462 151.723 25.5084C151.619 25.4707 151.524 25.4128 151.442 25.3382C151.361 25.2636 151.295 25.1737 151.248 25.0736C151.201 24.9734 151.175 24.8651 151.17 24.7547C151.168 24.7301 151.168 24.7054 151.17 24.6807V22.5137C150.412 23.5946 149.398 24.4708 148.219 25.0641C147.039 25.6574 145.732 25.9493 144.412 25.9137C141.146 26.0137 137.557 24.1027 137.525 20.4137M151.202 18.8297V16.8247C149.239 16.3068 147.218 16.0459 145.188 16.0487C141.437 16.0817 139.335 17.7607 139.368 20.2207V20.2857C139.4 22.8717 141.826 24.3267 144.541 24.3267C148.13 24.3267 151.235 22.0627 151.202 18.8267" fill="#1D202B"/>
<path d="M157.832 23.4784C157.642 23.3136 157.525 23.0814 157.505 22.8314C157.509 22.6096 157.599 22.3981 157.755 22.2412C157.912 22.0844 158.124 21.9945 158.346 21.9904C158.541 21.9898 158.732 22.0465 158.896 22.1534C160.602 23.4343 162.679 24.1267 164.812 24.1264C167.205 24.0934 169.082 22.7684 169.049 20.7264V20.6624C169.049 18.5624 166.784 17.8164 164.327 17.1374C161.45 16.3294 158.249 15.4564 158.216 12.2874V12.2234C158.184 9.37736 160.577 7.27637 164.037 7.27637C166.044 7.30414 168.012 7.83685 169.76 8.82538C169.894 8.90705 170.005 9.02069 170.084 9.15613C170.164 9.29157 170.208 9.44456 170.214 9.60138C170.21 9.82314 170.12 10.0347 169.963 10.1915C169.806 10.3483 169.594 10.4382 169.373 10.4424C169.202 10.4428 169.035 10.3979 168.888 10.3124C167.396 9.40273 165.687 8.91121 163.94 8.88937C161.516 8.92237 159.898 10.2484 159.931 12.0254V12.1254C159.931 14.0984 162.355 14.8094 164.91 15.5254C167.756 16.3014 170.764 17.3364 170.797 20.4724V20.5364C170.828 23.7064 168.113 25.7424 164.717 25.7424C162.245 25.6995 159.844 24.9103 157.829 23.4784" fill="#1D202B"/>
<path d="M176.879 20.764L176.816 9.12298H174.908C174.696 9.11461 174.496 9.02682 174.346 8.8771C174.196 8.72737 174.108 8.52668 174.099 8.31498C174.109 8.10669 174.199 7.91015 174.349 7.7658C174.5 7.62145 174.7 7.54027 174.908 7.53898H176.816L176.784 2.62398C176.78 2.51339 176.797 2.40305 176.836 2.29931C176.874 2.19556 176.933 2.10043 177.008 2.01935C177.084 1.93827 177.174 1.87284 177.275 1.82679C177.376 1.78074 177.485 1.75498 177.595 1.75098H177.624C177.738 1.75059 177.851 1.77269 177.957 1.81605C178.063 1.8594 178.159 1.92316 178.24 2.00367C178.321 2.08418 178.386 2.17987 178.43 2.28527C178.474 2.39067 178.497 2.50372 178.497 2.61797V2.62497L178.529 7.57198L184.091 7.53898C184.302 7.5478 184.503 7.63573 184.653 7.78536C184.803 7.93499 184.891 8.13543 184.9 8.34697C184.89 8.55518 184.8 8.75158 184.65 8.89588C184.499 9.04018 184.299 9.12144 184.091 9.12298L178.529 9.15497L178.595 20.602C178.625 23.157 180.115 24.027 182.181 24.002C182.864 23.9836 183.54 23.864 184.188 23.647C184.391 23.6556 184.583 23.7402 184.726 23.884C184.869 24.0278 184.954 24.2202 184.961 24.423C184.961 24.5894 184.907 24.7512 184.808 24.885C184.709 25.0189 184.57 25.1176 184.411 25.167C183.614 25.4659 182.773 25.6312 181.922 25.656C179.143 25.623 176.878 24.136 176.878 20.773" fill="#1D202B"/>
<path d="M188.176 1.86719H188.995C189.158 1.86719 189.299 1.8916 189.418 1.94043C189.538 1.98926 189.63 2.06152 189.695 2.15723C189.759 2.25293 189.792 2.37109 189.792 2.51172C189.792 2.62891 189.772 2.72852 189.734 2.81055C189.696 2.89258 189.643 2.96045 189.573 3.01416C189.505 3.06787 189.425 3.11133 189.333 3.14453L189.178 3.22949H188.48L188.478 2.85889H188.996C189.067 2.85889 189.126 2.84619 189.173 2.8208C189.22 2.79541 189.255 2.75977 189.279 2.71387C189.303 2.66699 189.315 2.6123 189.315 2.5498C189.315 2.48535 189.303 2.42969 189.279 2.38281C189.254 2.33594 189.218 2.30029 189.17 2.27588C189.124 2.25049 189.065 2.23779 188.995 2.23779H188.653V4H188.176V1.86719ZM189.356 4L188.877 3.05225L189.381 3.05078L189.868 3.97803V4H189.356Z" fill="#1D202B"/>
<circle cx="189" cy="3" r="1.75" stroke="black" stroke-width="0.5"/>
</g>
<defs>
<clipPath id="clip0_3_2">
<rect width="191" height="48" fill="white"/>
</clipPath>
</defs>
</svg>
