<svg xmlns="http://www.w3.org/2000/svg" width="121" height="61" viewBox="0 0 121 61"><path d="M93.52 37.71c-.22 0-.39.17-.39.39v.01c-.01.22.15.4.37.41.22.01.4-.15.41-.37v-.04c0-.22-.17-.39-.38-.4zm.14.67l-.14-.24h-.1v.24h-.09v-.55h.21c.13 0 .2.05.2.16 0 .08-.06.15-.14.15l.16.24h-.1zM79.61 32.34c-.22 0-.39.17-.39.39v.01c0 .22.18.39.4.38s.39-.18.38-.4c0-.21-.18-.38-.39-.38zm.14.67l-.14-.24h-.1v.24h-.08v-.55h.21c.13 0 .2.05.2.16 0 .08-.06.15-.14.15l.16.24h-.1z"/><path d="M93.65 37.98c0-.07-.06-.08-.12-.08h-.12v.17h.1c.07 0 .14-.01.14-.09zM79.74 32.62c0-.07-.06-.08-.12-.08h-.12v.17h.1c.07 0 .14 0 .14-.09zM46.86 33.52a.981.981 0 00-1.16-.43c-.62.2-.78.57-.92 1.28-.07.59-.05 1.18.08 1.76l2.24-1.78c.16-.15-.1-.62-.24-.83zM63.65 15.24c.36.14.76.07 1.05-.18.49-.38.16-1.04.12-1.11s-.15-.09-.14.03c.04.17.03.36-.03.52-.04.12-.17.19-.3.15a.248.248 0 01-.16-.17.58.58 0 010-.32c.03-.07-.05-.15-.11-.07-.07.11-.1.24-.1.38 0 .19.07.37.18.53-.14.08-.3.12-.46.1-.13 0-.15.09-.05.14zM65.57 32.96c-.99 0-1.55 1.17-1.55 2.63s.57 2.58 1.55 2.58 1.55-1.12 1.54-2.58-.56-2.62-1.54-2.63zM75.54 36.85c0 .26.03.94.75.93 1.1-.01.92-.87.95-1.08v-1.24s-1.73.17-1.69 1.39zM66.65 11.73c0-.08-.09-.13-.12-.02-.03.16-.11.31-.22.43-.15.13-.41.07-.38-.18.02-.17.13-.31.29-.36.05-.02.02-.12-.08-.09-.18.06-.32.19-.41.36-.05.17-.06.34-.02.51a.854.854 0 01-.42-.08c-.1-.05-.15.03-.09.1.25.25.61.33.95.23.55-.14.51-.81.51-.89zM81.38 24.89c-.13-.61.15-1.23.7-1.53.1-.05 0-.17-.42-.44-.34-.21-.44-.26-.73-.2-.69.14-1.23.68-1.37 1.38-.06.95.59 1.28 2.14 2.24 1.76 1.1 2.49 1.52 2.58 1.31s-2.52-1.85-2.91-2.75zM84.01 18.33c-.43-.34-.21-1.18-.33-1.17s-.22.48-.5.69c-.3.18-.63.33-.96.44-.17.33-.28.69-.33 1.06-.08.35-.15.7-.19 1.05-.02.23.46.55.51.43s.03-.67 1.23-1.36a4.63 4.63 0 011.98-.58c.01-.09-1-.22-1.42-.56zM87.32 13.79c-.15.01-.03.84-.43 1.25-.5.39-1.09.63-1.71.7-.52.09-.56.31-.33.31.12 0 .67-.06 1.16-.08.38 0 .75-.03 1.12-.1.46-.12.14-.65.81-1.06-.68-.16-.47-1.03-.62-1.02zM89.84 17.48c-.12.55-.46 1.03-.94 1.32l.2.03c.11.01.24.02.46.05.52.07 1.05-.02 1.51-.26.47-.22.73-.47 1.07-.58-.35-.07-.71-.12-1.07-.15-.43-.08-.84-.21-1.23-.4zM79.36 25.29c-.29-.31-.18-.4-.35-.37s-.34.56-1.12.98-1.51.36-1.53.55.36.06 1.4-.1c.75-.08 1.48-.25 2.19-.51.02-.1-.29-.23-.58-.55z"/><path d="M0 0c.04 33.36 27.07 60.39 60.43 60.43 33.36-.04 60.39-27.07 60.43-60.43H0zm70.32 13.91a14.135 14.135 0 0115.14-1.97c.09.04.13.15.09.24-.04.09-.15.13-.24.09a13.782 13.782 0 00-14.76 1.93c-.07.07-.19.06-.25-.02a.168.168 0 01.02-.25zm-7.02.28c.16-.33.43-.32.73-.57.18-.19.44-.28.7-.23.19.07.45.15.69.74.19.45.5.83.91 1.1.28.2.37.43.24.53-.8.33-1.67.46-2.53.39-.27-.03-.2-.24-.3-.28-.31-.1-.51-.26-.54-.4-.05-.23.08-.36.11-.57s-.17-.38 0-.71zm-32.57 15.3c-.39.03-.92.2-.92.6v7.51c0 .33.53.58.92.6v.39c-1.18-.07-2.36-.07-3.53 0v-.39c.39-.03.92-.2.92-.6v-7.51c0-.33-.53-.58-.92-.6v-.39c1.18.07 2.36.07 3.53 0v.39zm7.9 9.11a28.86 28.86 0 00-3.48 0v-.39c.39-.03.92-.2.92-.6v-3.06c0-.42-.25-.8-.63-.98-.69-.2-1.44.09-1.81.7v3.34c0 .33.53.58.92.6v.39c-1.16-.07-2.32-.07-3.47 0v-.39c.39-.03.92-.2.92-.6v-3.5c-.03-.36-.51-.47-.69-.5v-.34a3.27 3.27 0 001.74-.71h.51l.03.85c.93-.59 2.28-1.14 3.37-.5.53.38.82 1.01.76 1.66v3.05c0 .33.53.58.92.6v.38zm2.52.08c-.72.1-1.39-.4-1.5-1.12-.01-.09-.02-.19-.01-.28v-4.01h-.84v-.36c.38-.21.74-.45 1.08-.72.32-.27.59-.59.81-.95h.46v1.51h1.31v.52h-1.31v4s.08.6.54.6c.22.02.43-.07.56-.24l.37.26c-.3.53-.87.83-1.47.79zm5.13 0a3.055 3.055 0 01-.95-6.01c.95-.23 1.95-.01 2.71.6.13.1.28.17.45.21l.17.29-3.58 2.91s.3.8 1.68.92c.59.08 1.19-.1 1.63-.5l.28.36a3.3 3.3 0 01-2.39 1.22zm7.47-4.86c-.22.31-.62.43-.97.29-.21-.13-.55-.36-.76-.17-.25.24-.4.57-.42.92v2.74c0 .33.53.58.92.6v.39c-1.14-.07-2.28-.07-3.42 0v-.39c.39-.03.92-.2.92-.6v-3.5c-.03-.36-.51-.47-.69-.5v-.34a3.27 3.27 0 001.74-.71h.46l.02 1.35c.16-.56.56-1.01 1.1-1.22.36-.12.75-.02 1.01.25.22.24.25.6.08.87zm4.12-4.55c-.38 0-.61-.04-.91.45-.22 1.17-.3 2.36-.25 3.55h1.19v.5h-1.19v3.84c0 .33.53.58.92.6v.39c-1.13-.07-2.26-.07-3.38 0v-.39c.39-.03.92-.2.92-.6v-3.84h-.93v-.5h.93c.04-1.1-.11-2.44.69-3.37a3.3 3.3 0 013.45-1.34c.41.08.77.34.97.72.12.42-.08.86-.47 1.05-.3.11-.63.06-.88-.13-.38-.3-.54-.89-1.05-.93zm4.33 9.33c-1.14-.07-2.28-.07-3.42 0v-.39c.39-.03.92-.2.92-.6v-5.87c-.03-.36-.51-.47-.69-.5v-.34c.64-.06 1.24-.31 1.74-.7h.52v7.42c0 .33.53.58.92.6v.4zm3.37.07a3.19 3.19 0 01-3.26-3.07c0-1.71 1.37-3.1 3.08-3.1h.17a3.035 3.035 0 013.25 2.8v.3a3.168 3.168 0 01-3.25 3.07zm8.13-4.85c-.22.31-.62.43-.97.29-.21-.13-.55-.36-.76-.17-.25.24-.4.57-.42.92v2.74c0 .33.53.58.92.6v.39c-1.14-.07-2.28-.07-3.42 0v-.39c.39-.03.92-.2.92-.6v-3.5c-.03-.36-.51-.47-.69-.5v-.34c.64-.07 1.24-.31 1.74-.71h.46l.02 1.35c.16-.56.56-1.01 1.1-1.22.36-.11.75-.02 1.01.25.22.24.25.6.08.87zm4.88 4.83c-.53-.01-1.02-.3-1.29-.76-.44.44-1.03.7-1.66.74-.84.08-1.59-.55-1.67-1.39-.02-.81.49-1.54 1.26-1.81.15-.07.8-.22 1.35-.38.36-.11.65-.22.65-.22v-1.06c0-.41-.31-.76-.72-.83-.23-.01-.49.03-.77.47s-.59 1.1-1.1 1.07c-.25 0-.46-.16-.53-.4-.06-.43.47-1.6 2.37-1.6 2.19 0 2.24 1.54 2.24 1.54v3.05c0 .6.14.78.42.78s.58-.44.58-.44l.25.12c-.19.62-.74 1.07-1.39 1.12zm1.03-5.43c-.26 0-.47-.22-.47-.48s.22-.47.48-.47.47.22.47.48-.21.48-.48.48zm7.77 3.2c-1.19.81-2.5 1.44-3.88 1.85-.09.04-.19 0-.23-.09-.04-.09 0-.19.09-.23 0 0 .02 0 .03-.01 1.35-.41 2.63-1.02 3.79-1.81.08-.06.19-.03.25.05s.03.19-.05.25zm6.14 2.17c-.26 0-.47-.22-.47-.48s.22-.47.48-.47.47.21.47.47-.22.48-.48.48zm-2.44-5.86s-.09.08-.15.08c-.04 0-.07-.01-.1-.03a.19.19 0 01-.05-.25c2.42-3.53 3.07-7.99 1.75-12.07-.04-.09 0-.19.1-.23.09-.04.19 0 .23.1v.02c1.35 4.18.69 8.75-1.79 12.38zm3.96-14.58c-.2.19-.42.35-.67.48-.34.31-.73.57-1.15.76-1.11.44-2.5.08-3.33.21-.59.19-1.2.35-1.81.46-.36.06-.73.02-1.08-.11.04-.28.26-.51.54-.55.53-.14.54-.12.91-.24.21-.06-.02-.11-.25-.12h-.05c-.17-.02-.34-.04-.5-.08-.03-.01 0 .1.16.19-.05.02-.09.02-.09.02l-.23.06c-.36.06-.64.35-.67.71v.03l.02.04c.04.07.11.12.19.13-.66.76-1.41 1.43-2.24 2-.34.23-.64.51-.91.81-.29.33-.38.39-.43.7 0 0 1.32 1.12 2.05 1.91s1.05 1.23 1.1 1.28.57.45.74.64c.13.15.23.33.28.52.02.09.04.18.08.27.41.85.77 1.72 1.08 2.61.43 1.26 1 3.14 1 3.14.55-.07.98-.1 1.04.05.1.26-.28.86-.28.86a.91.91 0 01-.18.21c.34.39.63.83.85 1.31.19.53.52 1.01.96 1.36.6.6.52.53.43.65-.42.18-.89.11-1.25-.17-.45-.37-.48-.71-.93-.86s-1.11-.08-1.3-.51c-.09-.2.1-.58.2-.81.09-.15.14-.31.15-.48-.39.1-.79.09-1.18-.02-.59-.13-.71-.45-.71-.45.56.28 1.2.31 1.78.09 0-.01-.01-.02-.01-.03l-.08-.12c-.37.1-.75.12-1.12.06-.4-.06-.77-.25-1.05-.55.36.12.73.19 1.11.19.28.01.57-.02.84-.1 0 0-.08-.15-.11-.15-.45.08-.91.07-1.35-.02-.37-.04-.7-.26-.88-.58.55.17 1.12.25 1.69.22.08 0 .17 0 .25-.02-.39-.48-.78-.93-1.22-1.44-.3-.27-.57-.58-.81-.91-.45-.87-.8-1.8-1.03-2.76 0 0-1.32-.58-3.17-1.63-1.15-.66-2.01-1.24-2.01-1.24-.96.39-1.99.62-3.02.69-1.15.16-1.66.05-2.59.13-.5.06-1.01-.02-1.46-.22-.04-.02-2.62-.65-4.21-.99-.81-.28-1.66-.45-2.51-.49-.61.11-1.23.16-1.86.13a2.94 2.94 0 00-1.66.12c-.82.2-.73.17-.78.03.06-.45.36-.83.79-.98.55-.2.85-.05 1.21-.35s.64-.67 1.11-.62c.25.08.46.25.59.47.16.15.37.25.59.27l-.02-.31c-.42-.14-.81-.36-1.13-.67-.44-.41-.38-.75-.38-.75.34.52.88.88 1.5.98v-.18c-.38-.1-.72-.27-1.01-.51-.32-.25-.54-.61-.62-1 .25.29.54.53.86.73.23.15.48.27.75.33v-.17s0-.01-.02-.01c-.42-.16-.8-.4-1.14-.69-.3-.22-.47-.57-.46-.95.38.42.84.77 1.35 1.03.92.5 2.45.97 2.41 1.25-.03.19-.34.4-.53.51l-.65.49s1-.03 2.02-.03c.58-.11 1.17-.12 1.75-.05.88.16 1.74.43 2.56.78.05.01.11 0 .16-.02.6-.22 1.19-.48 1.76-.79 1.01-.46 2.1-.73 3.21-.79.21-.41.53-.75.92-.99.95-.6 1.38-.65 1.38-1.56.04-.89.17-1.76.39-2.62 0 0-.3.03-1.66.03-.75 0-1.31-.22-2.04-.22-.66 0-1.49.21-2.43.18-1.04-.06-2.09-.06-3.14.01.23.17.49.34.74.5.24.12.46.26.68.41.03.05.05.24.09.3s.17.15.23.2-.09.28-.22.23-2.26-1.51-2.64-1.73c-.27-.13-.52-.3-.75-.49-.27-.24-.58-.42-.92-.54-.26-.02-.51-.15-.68-.35-.27-.29-.64-.47-1.04-.48-.4.04-.79.17-1.13.38-.47.14-.97.14-1.44.01-.08-.02-.16-.09-.04-.18.31-.23.65-.42 1.01-.54.51-.17.58-.3.69-.29.22.04.44.05.67.03.32-.03.51-.12.61-.08.56.3 1.07.69 1.5 1.16.26.2.53.39.81.55.02-.03.05-.06.08-.08s-.52-.38-.6-.46c-.2-.19-.58-.64-.81-.81-.34-.31-.75-.52-1.19-.63-.37.04-.74 0-1.1-.09a1.38 1.38 0 01-1-1.25c0-.2.13-.38.31-.48-.2-.03-.41-.07-.6-.14-.52-.17-.9-.62-.97-1.17.04-.26.14-.14.29-.48s.24-.42.5-.42.58-.34.77-.45.38 0 .5.19.11.27.33.35.36.1.36.47c0 .28-.02.57-.07.85.05-.04.1-.08.14-.11.19-.12.39-.02.51.19-.05-.35-.06-.71-.03-1.06.02-.16.05-.26.1-.28.08-.04.24.46.36 1.12.02.32.11.64.26.92.14.38.22.78.21 1.19.03.23.15.43.34.56.03 0-.1-.34-.1-.54.04-.35.03-.7-.05-1.04a.912.912 0 01.04-.63c.05-.02.28.15.36.52.05.26.05.52 0 .78-.04.42.09.83.36 1.15.33.36.34.86.57 1.13.16.17.34.32.53.45.37-.12.76-.14 1.14-.06.36.2.77.3 1.18.31.65-.09 1.3-.24 1.93-.45.46-.14.93-.23 1.41-.26.34-.01.68.03 1.01.12.16.04.32.05.48.04.25-.03.5-.1.73-.19l.35-.12c.46-.16 1.59-.26 1.95-.33.4-.09 1.1-.53 1.71-.7.43-.1.87-.12 1.3-.06.27 0 .53-.06.77-.16.73-.19 1.25-.09 1.68-.63.26-.41.4-.89.39-1.38-.43.24-.89.43-1.36.58-.11-.06.64-.63.8-1.33.02-.22.06-.43.12-.64.03-.27.13-.53.28-.76-.3.07-.6.06-.9 0-.3-.03-.56-.2-.71-.45.56.27 1.2.31 1.78.09l-.11-.15c-.37.1-.75.12-1.13.06-.4-.06-.77-.25-1.05-.55.36.12.73.19 1.11.19.28.01.57-.02.84-.1 0 0-.08-.15-.11-.15-.45.08-.91.07-1.35-.02-.37-.04-.7-.26-.88-.58.54.17 1.11.24 1.68.21 1.05-.03 2.61-.4 2.71-.14.08.21-.15.64-.24.8.44-.07.89.02 1.27.26.65.47.54.66 1.04.96.36.22-1.46.16-2.88 1.13-.18.24 1.62-.61 2.54-.33.06.11-.08.34-.03.65.04.18.11.35.21.5.03.05.03.1 0 .12s-.22.08-.22.08a1.3 1.3 0 00-.22.72c.01.36-.11.49-.36.55-.28.06-.8-.4-1.06.42.47.01.94.1 1.39.26 1.07.3.88.43 1.58.59.75.08 1.47.31 2.14.66.55.29.89.43 1.07.56h.02c.19.16.23.43.09.63zm-29.2 2.61c.35-1.19.86-2.32 1.51-3.38.05-.09.15-.12.24-.08.09.05.12.15.08.24 0 0 0 .02-.01.02-.64 1.02-1.14 2.12-1.47 3.28a.18.18 0 01-.17.14h-.04a.175.175 0 01-.13-.21v-.01z"/><path d="M67.78 13.48a.87.87 0 01-.21.43c-.14.13-.41.07-.38-.17 0-.1.05-.19.11-.27.05-.05.01-.15-.07-.1-.1.07-.17.17-.22.28a.98.98 0 00-.04.51.678.678 0 01-.42-.08c-.1-.04-.15.03-.09.1.25.24.61.33.95.22.55-.15.5-.81.5-.9s-.1-.12-.13-.01z"/><path fill="#caad59" d="M79.83 32.62c0-.11-.07-.16-.2-.16h-.21v.55h.09v-.24h.1l.14.24h.09l-.16-.24c.08 0 .15-.05.15-.15zm-.32.09v-.17h.12c.06 0 .12.01.12.08 0 .08-.07.09-.14.09h-.1z"/><path fill="#caad59" d="M79.61 32.27c-.26 0-.47.22-.47.48s.22.47.48.47.47-.22.47-.48-.21-.48-.47-.48zm0 .87c-.22 0-.41-.17-.41-.39s.17-.41.39-.41.41.17.41.39v.01c0 .21-.16.39-.37.4h-.02zM72.61 32.68c-.53.22-.94.67-1.1 1.22l-.02-1.35h-.46c-.5.4-1.11.64-1.74.71v.34c.18.03.65.14.69.5v3.51c0 .4-.53.57-.92.6v.39c1.14-.07 2.28-.07 3.41 0v-.39c-.39-.02-.91-.28-.91-.6v-2.75c.01-.35.16-.68.41-.92.21-.2.55.04.76.17.35.14.75.01.97-.29a.71.71 0 00-.09-.88.976.976 0 00-1-.24zM59.8 30.32c.39-.2.58-.64.46-1.05-.2-.37-.55-.63-.96-.72-1.32-.3-2.69.23-3.45 1.35-.8.93-.65 2.26-.69 3.37h-.93v.5h.93v3.84c0 .4-.52.57-.91.6v.39c1.13-.07 2.26-.07 3.38 0v-.4c-.39-.02-.92-.28-.92-.6v-3.84h1.19v-.5h-1.19c-.05-1.19.03-2.38.25-3.55.3-.48.53-.45.91-.45.5.04.67.63 1.05.93.25.19.58.24.88.13z"/><path fill="#caad59" d="M61.29 37.6v-7.41h-.52c-.5.4-1.1.64-1.74.71v.34c.18.03.65.14.69.5v5.87c0 .4-.53.57-.92.6v.39c1.14-.07 2.28-.07 3.41 0v-.39c-.39-.02-.92-.27-.92-.6zM79.14 37.85c-.27 0-.42-.17-.42-.78v-3.06s-.05-1.54-2.24-1.54c-1.9 0-2.43 1.17-2.37 1.6.07.24.28.4.53.4.51.03.83-.63 1.1-1.07.13-.3.44-.49.77-.47.41.07.71.42.72.83v1.06s-.29.11-.65.22c-.54.16-1.2.31-1.35.38-.77.27-1.28.99-1.26 1.81.07.85.82 1.47 1.66 1.4.62-.03 1.21-.3 1.66-.74.27.46.76.75 1.29.76.65-.05 1.2-.5 1.39-1.12l-.25-.12s-.3.44-.57.45zm-1.91-1.15c-.02.22.15 1.07-.95 1.08-.73 0-.74-.67-.75-.93-.03-1.22 1.69-1.39 1.69-1.39v1.24zM27.19 29.1v.39c.39.02.92.28.92.6v7.51c0 .4-.53.57-.92.6v.39c1.18-.07 2.36-.07 3.54 0v-.39c-.38-.02-.92-.28-.92-.6v-7.51c0-.4.53-.57.92-.6v-.39c-1.18.07-2.36.07-3.54 0zM65.57 32.5a3.088 3.088 0 00-3.25 2.92v.18c.1 1.8 1.65 3.17 3.44 3.07a3.27 3.27 0 003.07-3.07c.04-1.67-1.28-3.07-2.95-3.11h-.3zm0 5.66c-.98 0-1.55-1.13-1.55-2.58s.56-2.63 1.55-2.63 1.54 1.17 1.54 2.63-.53 2.58-1.54 2.58zM37.72 37.6v-3.05c.07-.65-.22-1.29-.76-1.66-1.1-.63-2.45-.08-3.37.5l-.03-.85h-.51c-.5.4-1.1.64-1.74.71v.34c.18.03.65.14.69.5v3.51c0 .4-.53.57-.92.6v.39c1.16-.07 2.32-.07 3.47 0v-.39c-.38-.02-.92-.28-.92-.6v-3.35c.38-.61 1.12-.9 1.81-.7.38.18.63.56.63.98v3.06c0 .4-.53.57-.92.6v.39c1.16-.07 2.32-.07 3.48 0v-.39c-.39-.01-.92-.27-.92-.6zM41.7 37.86c-.46 0-.54-.6-.54-.6v-4h1.31v-.53h-1.31v-1.5h-.46c-.22.36-.49.67-.81.95-.34.27-.7.51-1.08.72v.36h.84v4.02c-.05.73.51 1.36 1.24 1.41.09 0 .18 0 .27-.01.61.04 1.18-.27 1.47-.8l-.37-.26c-.13.18-.35.27-.56.24zM52.66 32.68c-.53.22-.94.67-1.1 1.22l-.02-1.35h-.46c-.5.4-1.1.64-1.74.71v.34c.18.03.65.14.69.5v3.51c0 .4-.53.57-.92.6v.39c1.14-.07 2.28-.07 3.42 0v-.39c-.38-.02-.91-.28-.91-.6v-2.75c.01-.35.16-.68.41-.92.21-.2.55.04.76.17.35.14.75.01.97-.29.17-.28.14-.64-.09-.88a.976.976 0 00-1-.24zM46.76 37.6c-1.38-.12-1.68-.92-1.68-.92l3.58-2.91-.17-.29a1.32 1.32 0 01-.45-.21c-.76-.61-1.76-.84-2.71-.6a3.055 3.055 0 00.94 6.01c.93-.04 1.8-.49 2.38-1.22l-.28-.36c-.44.41-1.03.59-1.62.5zm-1.98-3.24c.14-.7.3-1.08.92-1.28.44-.14.92.04 1.16.43.13.21.4.69.24.83l-2.24 1.78c-.12-.58-.15-1.18-.08-1.76zM70.43 14.22s.08-.02.12-.04c4.12-3.47 9.89-4.22 14.76-1.93.09.04.19 0 .23-.1.04-.09 0-.18-.08-.23-5-2.35-10.91-1.58-15.14 1.97-.07.06-.08.18-.02.25.03.04.08.07.14.07zM66.01 20.98c.08 0 .15-.06.17-.14.33-1.16.83-2.26 1.47-3.28.06-.08.04-.19-.04-.25s-.19-.04-.25.04c0 0 0 .01-.01.02-.65 1.06-1.16 2.19-1.51 3.38-.03.09.03.19.12.22H66zM92.88 20.35c-.02-.1-.12-.15-.22-.13s-.15.12-.13.22v.02c1.32 4.08.67 8.53-1.75 12.07a.19.19 0 00.05.25c.03.02.06.03.1.03.06 0 .11-.03.15-.08 2.48-3.63 3.15-8.2 1.79-12.38zM93.52 37.63c-.26 0-.47.22-.47.48s.22.47.48.47.47-.22.47-.48a.48.48 0 00-.48-.48zm0 .87c-.22 0-.41-.17-.41-.39s.17-.41.39-.41.41.17.41.39v.01c0 .21-.16.39-.38.4h-.01z"/><path fill="#caad59" d="M93.74 37.99c0-.11-.07-.16-.2-.16h-.21v.55h.09v-.24h.1l.14.24h.09l-.16-.24c.08 0 .14-.05.15-.13v-.02zm-.33.08v-.17h.12c.06 0 .12.01.12.08 0 .08-.07.09-.14.09h-.1zM94.94 17.54h-.02c-.18-.13-.51-.27-1.07-.56a5.74 5.74 0 00-2.14-.66c-.71-.16-.51-.3-1.58-.59-.45-.16-.92-.24-1.39-.26.26-.82.77-.36 1.06-.42.24-.05.37-.19.36-.55 0-.26.09-.5.23-.72 0 0 .17-.06.22-.08s.04-.07 0-.12c-.1-.15-.17-.32-.21-.5-.05-.31.09-.54.03-.65-.92-.29-2.71.57-2.54.33 1.42-.97 3.24-.91 2.88-1.13-.5-.3-.39-.49-1.04-.96-.38-.24-.83-.33-1.27-.26.09-.16.33-.58.24-.8-.1-.26-1.66.1-2.71.14-.57.03-1.14-.04-1.68-.21.18.33.51.54.88.58.45.09.9.09 1.35.02.02 0 .11.15.11.15-.27.08-.55.11-.84.1-.38 0-.75-.07-1.11-.19.28.3.65.49 1.05.55.38.06.76.04 1.13-.06l.11.15c-.58.22-1.23.19-1.79-.08.15.26.42.42.71.45.3.07.6.07.9 0-.14.23-.24.49-.27.76-.06.21-.09.43-.12.64-.16.7-.91 1.26-.8 1.33.47-.14.93-.34 1.36-.58 0 .49-.15.97-.42 1.38-.43.54-.95.43-1.68.63-.4.1-.51.19-.77.16-.43-.06-.87-.04-1.3.06-.61.16-1.31.61-1.71.7-.35.08-1.48.18-1.95.33l-.35.12c-.23.1-.48.16-.73.19-.16.01-.32 0-.48-.04-.33-.1-.67-.14-1.01-.13-.48.03-.95.12-1.41.26-.63.21-1.27.36-1.93.45-.41 0-.82-.11-1.18-.31-.38-.08-.77-.06-1.14.06-.19-.14-.36-.29-.53-.45-.23-.27-.24-.76-.57-1.13-.27-.32-.4-.73-.36-1.15.05-.26.05-.52 0-.78-.07-.36-.31-.53-.36-.51-.09.2-.11.42-.04.63.07.34.09.69.05 1.04 0 .2.13.54.1.54a.794.794 0 01-.34-.56c0-.41-.07-.81-.21-1.19-.15-.28-.24-.6-.26-.92-.11-.66-.27-1.16-.36-1.12-.05.02-.08.12-.1.28-.03.35-.02.71.03 1.06-.13-.2-.33-.31-.51-.19-.04.03-.09.07-.14.11.04-.28.07-.56.07-.85 0-.38-.13-.39-.36-.47s-.21-.15-.33-.35-.31-.3-.5-.19-.51.45-.77.45-.34.08-.5.42-.25.22-.29.48c.07.54.45 1 .97 1.17.2.07.4.11.6.14-.18.09-.3.27-.31.48.03.59.43 1.09 1 1.25.36.09.73.12 1.1.09.44.1.86.32 1.19.63.28.25.55.52.81.81.08.07.56.42.6.46s-.06.05-.08.08a8.87 8.87 0 01-.81-.55 5.64 5.64 0 00-1.5-1.16c-.1-.04-.29.05-.61.08-.22.02-.45.01-.67-.03-.12-.02-.19.11-.69.29-.36.13-.7.31-1.01.54-.13.09-.05.16.04.18.47.13.97.13 1.44-.01.34-.22.73-.35 1.13-.38.4.02.77.19 1.04.48.17.2.41.33.68.35.34.12.65.31.91.54.23.2.48.36.75.49.38.21 2.51 1.67 2.64 1.72s.27-.16.22-.22-.19-.15-.23-.21-.06-.24-.09-.29c-.22-.15-.44-.29-.68-.41a6.39 6.39 0 01-.74-.5 25.3 25.3 0 013.14-.01c.94.03 1.77-.18 2.43-.18.73 0 1.29.22 2.04.22 1.36 0 1.66-.03 1.66-.03-.22.86-.35 1.74-.39 2.62 0 .9-.43.95-1.38 1.56-.39.24-.71.58-.92.99-1.11.06-2.2.33-3.21.79-.56.31-1.15.57-1.76.79-.05.03-.1.03-.16.02-.82-.36-1.68-.62-2.56-.78-.58-.07-1.17-.06-1.75.05-1.02 0-2.02.03-2.02.03l.65-.49c.19-.11.5-.32.53-.51.04-.28-1.49-.75-2.41-1.25-.51-.26-.96-.61-1.35-1.03 0 .37.16.73.46.95.33.3.72.53 1.14.69s0 .18 0 .18c-.27-.07-.52-.18-.75-.33-.32-.2-.61-.44-.86-.73.09.39.31.75.62 1 .29.24.63.42 1 .51v.09l.01.09c-.61-.1-1.16-.46-1.5-.98 0 0-.06.34.38.75.32.3.71.53 1.13.67l.02.31c-.22-.02-.43-.12-.59-.27-.13-.22-.34-.39-.59-.47-.48-.06-.75.31-1.11.62s-.66.15-1.21.35c-.42.16-.73.53-.79.98.05.14-.04.17.78-.03.53-.19 1.11-.23 1.66-.12.63.03 1.26-.01 1.88-.12.86.05 1.7.21 2.51.49 1.59.35 4.17.97 4.21.99.46.2.97.28 1.46.22.93-.08 1.44.02 2.59-.13 1.04-.07 2.06-.3 3.02-.69 0 0 .86.58 2.01 1.24 1.85 1.05 3.17 1.63 3.17 1.63.23.96.58 1.89 1.03 2.76.24.33.51.64.81.91.43.5.83.96 1.22 1.44-.09 0-.17.01-.25.02-.57.03-1.14-.04-1.69-.21.18.33.51.54.88.58.45.09.9.09 1.35.02.02 0 .11.15.11.15-.27.08-.55.11-.84.1-.38 0-.75-.07-1.11-.19.28.3.65.49 1.05.55.37.06.76.04 1.12-.06l.09.12s.01.02.02.03c-.58.22-1.23.19-1.78-.09 0 0 .12.32.71.45.38.11.79.12 1.18.02 0 .17-.05.34-.15.48-.1.23-.28.61-.2.81.19.44.86.36 1.3.51s.47.48.93.86c.35.28.83.35 1.25.17.09-.12.17-.05-.43-.65-.44-.36-.77-.83-.96-1.36-.22-.47-.51-.91-.85-1.31a.91.91 0 00.18-.21s.38-.59.28-.86c-.06-.15-.49-.11-1.04-.05 0 0-.57-1.88-1-3.14-.31-.89-.68-1.76-1.09-2.61-.03-.09-.06-.18-.08-.27-.05-.19-.15-.37-.28-.52-.17-.19-.69-.59-.74-.64s-.37-.49-1.1-1.28-2.05-1.91-2.05-1.91c.05-.32.15-.38.43-.71.27-.31.58-.58.91-.81.83-.57 1.58-1.24 2.24-2a.289.289 0 01-.19-.13l-.02-.04v-.04c.04-.36.31-.66.67-.71l.23-.06s.04 0 .09-.02c-.15-.09-.19-.2-.16-.19.16.04.33.07.5.08h.04c.22.01.46.05.25.12-.37.11-.38.1-.91.24-.28.04-.5.26-.54.55.34.13.71.17 1.08.11.61-.12 1.22-.27 1.81-.46.83-.12 2.22.23 3.33-.21.42-.19.81-.44 1.15-.76.25-.13.47-.29.67-.48.15-.2.11-.47-.08-.62zm-28.8-4.93c-.33.1-.7.01-.95-.23-.06-.07-.01-.15.09-.1.13.07.28.1.42.08a.978.978 0 01.02-.51.8.8 0 01.41-.36c.1-.03.13.07.08.09-.16.06-.27.2-.29.36-.03.25.23.31.38.18.11-.12.19-.27.22-.43.03-.1.12-.06.12.02s.04.75-.51.89zm1.27 1.79a.95.95 0 01-.95-.22c-.06-.07-.02-.14.09-.1.13.07.28.1.42.08a.98.98 0 01.04-.51c.04-.11.12-.21.22-.28.08-.05.12.05.07.1-.06.08-.1.17-.11.27-.03.25.23.31.38.17a.87.87 0 00.21-.43c.03-.1.12-.06.12.02s.05.74-.5.89zm10.35 11.94c-1.04.16-1.41.29-1.4.1s.74-.12 1.53-.55.96-.96 1.12-.98.06.06.35.37.6.45.58.55c-.7.25-1.44.42-2.18.51zm6.53 1.3c-.09.22-.82-.21-2.58-1.31-1.55-.97-2.2-1.29-2.14-2.24.14-.69.67-1.23 1.36-1.38.29-.06.38-.02.73.2.43.27.52.38.42.44-.55.3-.83.92-.7 1.53.39.91 3.01 2.54 2.91 2.76zm-.84-8.17c-1.21.7-1.19 1.25-1.23 1.36s-.54-.2-.51-.43c.04-.35.11-.71.19-1.05.04-.37.15-.73.33-1.06.34-.11.66-.26.96-.44.28-.21.39-.69.5-.69s-.1.83.33 1.17 1.44.47 1.42.56c-.7.04-1.37.24-1.98.58zm3.68-3.6c-.37.07-.74.1-1.12.1-.49.02-1.04.08-1.16.08-.23 0-.19-.22.33-.31a3.36 3.36 0 001.71-.7c.41-.41.28-1.24.43-1.25s-.06.86.62 1.01c-.68.41-.35.95-.81 1.07zm3.95 2.74c-.47.24-.99.34-1.51.26-.23-.03-.36-.04-.46-.05-.07 0-.13-.02-.2-.03.48-.29.82-.77.94-1.32.39.19.8.33 1.23.4.45.09.89.07 1.07.15-.34.12-.6.36-1.07.58z"/><path fill="#caad59" d="M63.19 15.49c.03.14.23.29.54.4.1.03.03.25.3.28.86.07 1.73-.07 2.53-.39.13-.1.04-.32-.24-.53-.41-.27-.72-.65-.91-1.1-.24-.59-.49-.68-.69-.74a.763.763 0 00-.7.23c-.3.25-.57.23-.73.57s.03.52 0 .73-.16.33-.11.56zm.51-.4c.16.02.32-.02.46-.1a1.02 1.02 0 01-.18-.53c0-.13.03-.26.1-.38.06-.09.14 0 .11.07a.58.58 0 000 .32c.03.13.16.2.29.17.08-.02.14-.08.17-.16.06-.17.07-.35.03-.52-.01-.12.09-.11.14-.03s.37.73-.12 1.11c-.29.25-.69.31-1.05.18-.09-.04-.07-.13.05-.14zM87.18 36.12c-1.16.79-2.44 1.41-3.79 1.81-.09.04-.13.14-.09.23.04.08.12.12.2.1 1.38-.42 2.69-1.04 3.88-1.85.08-.06.1-.17.05-.25a.175.175 0 00-.24-.05z"/></svg>